# xmcd
#
# Track frame offsets:
#	150
#	21772
#	44692
#	64655
#	85155
#	104025
#	123942
#	143030
#	157842
#	178840
#	198240
#
# Disc length: 2907 seconds
#
# Revision: 1
# Processed by: cddbd v1.5PL3 Copyright (c) Steve Scherf et al.
# Submitted via: EasyCDDAExtractor 6.5.0.1
#
DISCID=930b590b
DTITLE=장기호 밴드 - When I Think Of You
DYEAR=2004
DGENRE=
TTITLE0=When I Think Of You
TTITLE1=You And Me
TTITLE2=이대로 영원히
TTITLE3=Love Ivan
TTITLE4=Need Flower Need Shower
TTITLE5=Turn Your Face
TTITLE6=Nobody Knows
TTITLE7=주의 친절한 팔에
TTITLE8=난 오직 그대뿐
TTITLE9=샴푸의 요정 2004
TTITLE10=Goodbye
EXTD=
EXTT0=
EXTT1=
EXTT2=
EXTT3=
EXTT4=
EXTT5=
EXTT6=
EXTT7=
EXTT8=
EXTT9=
EXTT10=
PLAYORDER=
